<?xml version="1.0" encoding="utf-8"?>
<!-- Generator: Adobe Illustrator 27.0.0, SVG Export Plug-In . SVG Version: 6.00 Build 0)  -->
<svg version="1.1" xmlns="http://www.w3.org/2000/svg" xmlns:xlink="http://www.w3.org/1999/xlink" x="0px" y="0px"
	 viewBox="0 0 175 150" style="enable-background:new 0 0 175 150;" xml:space="preserve">
<style type="text/css">
	.st0{fill:#261B2C;}
	.st1{fill:#AA4628;}
	.st2{fill:#DA4645;}
	.st3{fill:#FFFFFF;}
	.st4{fill:#F2726A;}
	.st5{fill:#87162E;}
	.st6{fill:#64283C;}
	.st7{fill:#CF1E3B;}
	.st8{fill:#FFFFFF;stroke:#000000;stroke-width:2;stroke-miterlimit:10;}
	.st9{fill:none;stroke:#000000;stroke-miterlimit:10;}
	.st10{display:none;}
	.st11{display:inline;}
	.st12{fill:#FFFFFF;stroke:#231F20;stroke-miterlimit:10;}
	.st13{stroke:#231F20;stroke-width:0.5;stroke-miterlimit:10;}
	.st14{fill:#FFFFFF;stroke:#231F20;stroke-linejoin:round;stroke-miterlimit:10;}
	.st15{display:inline;fill:#FFFFFF;stroke:#000000;stroke-width:2;stroke-miterlimit:10;}
</style>
<g id="Layer_1">
</g>
<g id="Layer_2">
</g>
<g id="jacket">
</g>
<g id="leg">
</g>
<g id="torso">
	<g>
		<path d="M129.6,46.3c-1.1-2.2-2.1-4.6-2.9-7c-0.3-0.9-0.7-1.9-1-2.8c-0.5-1.3-0.9-2.6-1.4-3.9c-0.5-1.5-1.3-3.4-2.5-5.2
			c-1.6-2.4-3.7-4-6.5-5c-4.3-1.5-8.6-3.1-12.9-4.7l-4.2-1.5c-0.3-0.1-0.6-0.1-0.9,0.1c-0.1,0-0.1,0.1-0.2,0.1l-0.2-1.1l-0.2,1.3
			c-2,1.1-4.3,1.7-7,2c-2.1,0.2-4.4,0-6.6-0.4c-2-0.4-3.5-0.9-4.7-1.7c-0.3-0.2-0.5-0.2-0.8-0.1c-0.4,0.1-0.7,0.3-1.1,0.4l-4.6,1.7
			c-3.7,1.3-7.3,2.6-11,4c-1.3,0.5-2.4,1-3.3,1.6c-1.4,1-2.6,2.3-3.6,3.9c-1.1,1.8-1.8,3.7-2.5,5.4c-0.4,1.1-0.8,2.3-1.2,3.4
			c-0.4,1-0.7,2.1-1.1,3.1c-0.8,2.1-1.6,4.1-2.7,6.4c-0.1,0.2-0.2,0.4-0.1,0.6c0.1,0.2,0.3,0.3,0.5,0.4l0.3,0.1
			c0.6,0.3,1.3,0.6,1.9,0.9c3.2,1.2,6.7,2.2,10.6,2.9c0.9,0.2,2.1,0.3,3.3,0.3c0,0,0,0,0,0c0.2,0,0.7,0,0.8-0.5
			c0.1-0.3,0.2-0.6,0.3-0.9l0,0c2.6,2.7,2.7,4.7,2.8,7.1l0,0.6c0.1,1.1,0.1,2.2,0.1,3.3l0,1.2c0,0.2-0.1,0.4-0.3,0.6L66.9,63
			c-0.1,0.1-0.3,0.3-0.4,0.4c-0.7,0.9-0.5,1.6-0.2,2.1l0.1,0.2c0.1,0.1,0.1,0.2,0.2,0.2c0.1,0.2,0.1,0.3,0,0.5
			c-0.3,0.7-0.7,1.8-0.1,2.8c0.3,0.5,0.3,1.1,0.2,1.7c-0.2,1.1-0.8,2.2-1.3,3.3c-0.7,1.4-1.4,2.8-1.5,4.3c-0.2,2.6-0.4,5.3-0.4,8.2
			c0,0.2,0,0.3,0.1,0.5c-0.4,1.8-2.1,9-4.4,18.8c-2.6,11.2-5.3,22.2-5.3,22.3l-0.2,0.7l0.7,0.2c0.8,0.2,19.8,5.8,33.5,1.8
			c4.1,1.3,8.3,1.8,12.5,1.8c11.1,0,20.8-3.4,21.4-3.6l0.6-0.2l-5.3-23c-2.2-9.5-4-16.5-4.6-18.5l0,0v-0.8c0-0.6,0-1.1,0-1.7
			c0-1.2,0-2.5-0.1-3.7c-0.1-2.2-0.9-4.3-1.8-6.4c-0.5-1.4-1.1-2.8-1.4-4.2c-0.1-0.4-0.1-0.8,0.1-1.2c0.4-0.6,0.5-1.3,0.3-1.9
			c0-0.1,0-0.1,0-0.2c0-0.2-0.1-0.5-0.2-0.7c-0.2-0.4-0.2-0.4,0.2-1.1c0.4-0.7,0.4-1.4-0.1-2.1c-0.1-0.1-0.2-0.2-0.3-0.3
			c-0.3-0.3-0.4-0.6-0.4-1c0-2,0-3.7,0.3-5.3c0.2-1.3,0.8-2.6,1.5-3.8c0.5-1,1-2,1.3-3c0.1,0.4,0.3,0.7,0.4,1.1
			c0.2,0.5,0.6,0.5,0.9,0.5c1.1,0,2.1-0.1,3-0.3c3.1-0.5,6.2-1.3,9.5-2.4c1.2-0.4,2.5-0.9,3.7-1.5l0.1-0.1
			C129.7,47.1,129.8,46.8,129.6,46.3z M111.9,37.5c0.1,1.1,0.2,2.2,0.1,3.3c-0.1,0.8,0,1.5,0,2.3c0,0.7,0.1,1.3,0,1.9
			c-0.1,1.1-0.7,2.2-1.3,3.3c-0.6,1-1.1,2-1.3,3l-0.4,0.8c-0.9,2-1.9,4.4-2,6.6c0,1-0.1,2-0.1,3l0,0.7c0,0.6,0.2,1.2,0.8,1.7
			l0.2,0.2c0.3,0.3,0.2,0.5,0.1,0.6c-0.2,0.3-0.3,0.5-0.5,0.8c-0.2,0.4-0.1,0.7,0,1c0.1,0.3,0.2,0.6,0.3,0.9l0.1,0.3
			c0.1,0.2,0,0.4-0.1,0.7c0,0,0,0.1,0,0.1c-0.4,0.7-0.5,1.5-0.3,2.3c0.4,1.6,1.1,3.1,2,4.8c0.3,0.6,0.6,1.2,0.9,1.8
			c0.1,1.3,0.2,2.7,0.3,4l0.1,1.6c0,0.1,0,0.3,0,0.4l0,0.3c0,0,0,0,0,0l0,0.4l-0.2,0c-0.3,0-0.7,0.1-1,0.1
			c-3.8,0.5-7.7,0.7-11.8,0.8c-5.3,0.1-9.6,0.1-13.7,0.1c-2.6,0-5.3-0.1-8.1-0.2C74,85.2,72,85,70.1,84.9l-1.4-0.1
			c-0.8-0.1-1.6-0.2-2.4-0.3l-0.6-0.1l0.1-0.4L65.3,84l0-0.2c0-0.4,0-0.7,0-1.1l0-0.1c0.1-1.5,0.2-3.1,0.3-4.6
			c0.1-1.1,0.7-2.3,1.4-3.5c0.6-1,1.1-2.1,1.4-3.2l0.1-0.2c0.1-0.2,0.1-0.4,0.1-0.7c0-0.3,0-0.5-0.1-0.9c-0.1-0.3-0.2-0.6-0.4-0.9
			C68,68.3,68,68.1,68,67.8c0.1-0.4,0.2-0.8,0.4-1.2c0.2-0.4,0.1-0.8-0.1-1.2c-0.1-0.2-0.3-0.5-0.4-0.7c-0.1-0.1-0.1-0.2,0.1-0.5
			c0.9-0.8,1.1-1.8,1-2.5c0-2.9-0.3-5.6-0.7-8.3c-0.2-0.9-0.8-1.9-1.4-2.7c-0.6-0.8-1.2-1.7-1.3-2.5c-0.1-0.6-0.4-1.1-0.6-1.6
			c-0.3-0.5-0.5-1-0.6-1.4l-0.2-1.6c-0.1-1.2-0.2-2.3-0.4-3.5c-0.1-0.8,0-1.6,0.2-2.4c0.1-0.9,0.3-1.7,0.2-2.6
			c-0.3-2.6-0.6-4.9-1.3-7.3c-0.3-1-0.7-2.1-1.3-3.2c-0.1-0.2-0.3-0.4-0.4-0.6l13.6-4.9c0,0,0.1,0,0.1-0.1l0.4,0.4l0.2-0.3
			c0,0,0,0,0,0.1c1.5,1.9,3.6,3.2,6.3,4c4.1,1.1,8.1,1.1,12,0c2.4-0.7,4.3-1.8,5.7-3.3c0.2-0.2,0.4-0.5,0.6-0.7c0,0,0,0,0-0.1l0,0.2
			l0.5-0.4c0,0,0,0,0.2,0c3.9,1.4,7.8,2.8,11.7,4.2l2.4,0.9c-1.1,1.4-1.5,2.9-2,4.6c-0.5,1.9-0.8,3.9-1,5.6
			C111.7,35.3,111.8,36.4,111.9,37.5z M61.1,26c0.6,1.2,1,2.5,1.2,3.9c0.3,1.6,0.5,3.2,0.8,5c0.1,0.8,0,1.6-0.1,2.5
			c-0.1,0.8-0.2,1.7-0.1,2.6c0.1,1.4,0.3,2.7,0.4,4.1l0.1,1.1c0,0.1,0,0.1,0,0.1c-0.2,0.5-0.2,1.1-0.1,1.5c0,0.4,0.1,0.7,0,1.1
			l-0.5,0l-0.1,0.2l-0.3,0c-0.6-0.1-1.1-0.1-1.7-0.2c-3.8-0.7-7.3-1.6-10.4-2.9c-0.1,0-0.2-0.1-0.2-0.1l-0.8-0.6
			c1.1-2.3,1.9-4.8,2.7-7.1c0.4-1,0.7-2,1.1-3.1c0.6-1.6,1.3-3.4,2.3-5.1c1-1.7,2-2.9,3.3-3.8c0.4-0.3,0.8-0.5,1.3-0.8l0.2-0.1
			c0,0,0,0,0,0l0.1,0.1C60.5,25,60.8,25.5,61.1,26z M62.4,50l-0.5,0c-0.4,0-0.8-0.1-1.2-0.1c-2.5-0.4-5.2-1-8.2-1.9
			c-1.5-0.5-2.9-1-4-1.5l-0.1-0.1c0,0-0.1,0-0.1,0c0.1-0.2,0.2-0.5,0.3-0.7l0,0c1.9,0.9,4.1,1.6,6.9,2.3c2.1,0.5,4.5,1.1,7.1,1.4
			L62.4,50z M110.7,86.1c-0.5,0.1-1,0.1-1.4,0.2c-3.7,0.4-6.9,0.7-9.9,0.8c-1.7,0.1-3.4,0.1-5,0.1l-1.1,0c-3.2,0-6.5,0-9.8,0
			c-2.7,0-5.5-0.1-8.4-0.2c-2.8-0.1-5.8-0.4-9.7-0.8c0,0-0.1,0-0.1,0v-0.7l0.3,0c0.5,0.1,0.9,0.1,1.4,0.1l1.4,0.1
			c1.6,0.1,3.2,0.3,4.8,0.4c3.8,0.3,7.5,0.3,11.6,0.4l1.5,0c1.1,0,2.2,0,3.3,0l0.8,0c3.5,0,7.1-0.1,10.7-0.2
			c2.9-0.1,6.1-0.4,9.8-0.9c0,0,0,0,0,0C110.7,85.7,110.7,85.9,110.7,86.1z M127.7,46.4c-0.2,0.1-0.4,0.2-0.7,0.3
			c-2.5,1-5.3,1.9-8.9,2.7c-1.8,0.4-3.1,0.6-4.4,0.7c0,0-0.1,0-0.1,0c-0.1-0.2-0.2-0.5-0.3-0.7c4.9-0.7,9.6-1.9,14-3.8L127.7,46.4z
			 M113,47c0.2-0.5,0.4-1,0.2-1.6c0-0.1,0-0.2,0-0.3c0.1-0.7,0-1.4,0-2.1c0-0.7-0.1-1.4,0-2.1c0.1-0.8,0.1-1.5,0-2.2
			c0-0.8,0-1.5,0-2.2c0.1-0.6,0-1.2,0-1.8c0-0.6-0.1-1.1,0-1.7c0.3-2.5,0.8-4.7,1.6-6.7c0.2-0.4,0.4-0.8,0.7-1.3l0.3-0.4
			c0,0,0.1-0.1,0.1-0.2c0.6,0.3,1.2,0.6,1.7,1.1c1.2,0.9,2.1,2,3,3.4c1.1,1.8,1.8,3.8,2.5,5.7c0.4,1.1,0.8,2.1,1.2,3.2
			c0.4,1.2,0.9,2.5,1.3,3.7c0.2,0.6,0.5,1.3,0.8,1.9l0.3,0.8c0,0,0,0,0,0c0,0-0.1,0.1-0.2,0.1l-1.5,1c-2.2,0.8-4.7,1.6-7.7,2.2
			c-1.1,0.3-2.6,0.6-4.1,0.7L113,48l-0.2,0C112.7,47.7,112.8,47.4,113,47z M92.1,19.8c0.8-0.1,1.5-0.3,2.3-0.6
			c-1.3,0.7-2.9,1.2-4.6,1.4c-2.7,0.3-5.2,0.1-7.5-0.8c-0.4-0.2-0.9-0.4-1.3-0.6c1.1,0.3,2.4,0.6,3.7,0.7
			C87.4,20.3,89.9,20.2,92.1,19.8z M77.2,18.2c0.1-0.1,0.3-0.1,0.4-0.1c0,0,0.2,0.1,0.2,0.2c0.1,0.1,0.1,0.1,0.2,0.2
			c1.9,1.7,4.3,2.8,7.2,3.2c1.9,0.3,3.8,0.2,5.6-0.1c2.9-0.5,5.2-1.8,7-3.6l0,0l1.3,0.4c-0.9,1.3-2.2,2.3-4,3.1
			c-1.9,0.8-3.9,1.3-6.1,1.5c-2.9,0.2-5.6-0.2-8.1-1c-2-0.7-3.6-1.8-4.8-3.3c0.2-0.1,0.5-0.2,0.7-0.2C77,18.2,77.1,18.2,77.2,18.2z
			 M120.5,128c-3.3,1.1-19,5.7-31.9,1.7l0.1-16.9l-1.5,0l-0.1,16.9c-11.8,3.3-28.1-0.8-31.6-1.7c0.6-2.6,2.9-12,5.1-21.7
			c2.2-9.4,3.8-16.4,4.3-18.5c2.4,0.3,10.6,1.1,19.2,1.1h7.7c6.3,0.2,16.5-0.8,19.1-1c0.5,2,2.4,9,4.6,18.5L120.5,128z"/>
		<path d="M73.3,49.8l-0.2,1c0.1,0,7.1,1.7,15.8,1.7c4.4,0,9.3-0.4,13.9-1.7l-0.3-1C89,53.6,73.5,49.8,73.3,49.8z"/>
	</g>
</g>
<g id="head" class="st10">
	<g class="st11">
		<path class="st12" d="M60.1,105.2c0,0,0.1,0,0.1,0C60.1,105.3,60.1,105.2,60.1,105.2z"/>
		<path class="st12" d="M61.3,105.5c0,0,0,0.1,0,0.1c-0.3-0.1-0.6-0.2-0.9-0.2c-0.1,0-0.1,0-0.2-0.1c0.1,0,0.1,0,0.2,0
			c0.1,0,0.2,0,0.3,0h0C61.1,105.4,61.3,105.4,61.3,105.5C61.3,105.4,61.3,105.4,61.3,105.5z"/>
		<g>
			<path class="st12" d="M48.2,71.8c-0.2-1.2-1-2.3-2-2.8c-4-2.2-7.1,5.7-5.8,11.6c1.4,6.7,5.7,15.1,8.3,15.6
				c2.6,0.5,4.1-0.7,4.1-0.9C52.8,95.1,49.2,76.8,48.2,71.8z"/>
			<path class="st12" d="M126,71.8c0.2-1.2,1-2.3,2-2.8c4-2.2,7.1,5.7,5.8,11.6c-1.4,6.7-5.7,15.1-8.3,15.6
				c-2.6,0.5-4.1-0.7-4.1-0.9C121.5,95.1,125,76.9,126,71.8z"/>
		</g>
		<path class="st8" d="M129,56c0-5.8-1.9-12.1-5-17.9c-5-9.5-13.7-16.4-23.9-19.8l0,0c-8.8-2.9-18.4-2.8-27.2,0.2L71.7,19
			c-6.8,2.3-12.9,6.3-17.6,11.7c-5.2,6-8.8,13.1-8.8,21.1c0,29.5-0.6,33.1,7.3,49.2c9.4,16.9,21.4,30.1,34.6,30.5
			c13.2-0.4,25.2-13.5,34.6-30.5C129.6,84.9,129,85.4,129,56z"/>
		<g>
			<path class="st12" d="M107.4,66.8c-2.1,0.1-4.2,0.7-5.9,2.1c-1.4,1.1-2.6,2.8-3.5,5c1.2,0.2,3.4,0.7,6,1c0.9,0.1,1.9,0.2,2.9,0.2
				c2.6,0,5.1-0.4,6.8-1.8l4.4-1.9C116,68.7,111.6,66.6,107.4,66.8z"/>
			<path class="st12" d="M72.8,68.9c-1.7-1.4-3.8-2-5.9-2.1c-4.2-0.2-8.6,1.9-10.6,4.5l4.4,1.9c1.7,1.4,4.2,1.8,6.8,1.8
				c1,0,1.9-0.1,2.9-0.2c2.5-0.3,4.8-0.8,6-1C75.4,71.7,74.2,70,72.8,68.9z"/>
		</g>
	</g>
</g>
<g id="hair" class="st10">
	<g class="st11">
		<path class="st8" d="M92.3,28.4c0,0-22.8,6.5-22.8,18.7s-1.4,21-0.7,24.4c0.7,3.4,7.9,16.9,7.9,20.5s0.4,12.5-1.4,16.5
			c-1.8,4.1-5,7.8-5,12.2s1.3,10.7-3.1,11.5s-11,2.3-14-15.3c0,0,0.6-8.4,0.2-16.6c-0.4-8.1-1.8-11.2-2-18.2c-0.2-7-0.4-15.4,2-21.9
			c2.4-6.5,5.7-15.6,8.5-21.9c2.8-6.3,9.1-21.8,30.5-21.8V28.4z"/>
		<path class="st8" d="M92.3,28.4V16.6c0,0,9.4,1.3,12.9,2.8c3.5,1.5,7.3,7.6,9.7,11.7c2.4,4.1,10.5,14.4,10.5,19.3
			s1.2,11.8,0.9,15.5s0.4,12.5,0.4,15.8c0,3.2,3.1,7.6,1.7,10.4c-1.5,2.8-5.2,5.8-6.3,8c-1.1,2.1-4.2,4.4-3.7,8.8
			c0.6,4.4,1.8,7.6,2.8,12.5c0.5,2.7,0.5,5.3,0.5,7.3c0,1.7-1.5,3.1-3.4,3.3c-3.6,0.4-6.1,1.4-7.8,0.6c-2.2-1.1-4.8-2.4-7.9-2.8
			c-1.3-0.1-2.3-0.3-3.2-0.5c-2.3-0.4-3.7-2.5-2.9-4.5c1.2-3,2.7-7,3.2-9c0.9-3.4,3.5-5,3.5-9.3s1.3-9.4,2-11.7
			c0.7-2.3,4.6-5.5,5-7.6c0.4-2.1,2.4-9.1,2.4-11.5s0.2-5-0.4-11.7c-0.6-6.7-1.7-10.7-3.5-15.6c-1.8-4.9-4.3-9.5-5.2-12
			C101.5,30,92.3,28.4,92.3,28.4z"/>
	</g>
</g>
</svg>
